<svg width="101" height="21" viewBox="0 0 101 21" fill="none" xmlns="http://www.w3.org/2000/svg">
<g clip-path="url(#clip0_361_1412)">
<path d="M26.2772 18.3617L15.4549 6.26898C10.3085 0.518374 1.00725 6.10664 3.66803 13.3507L4.73509 16.2557" stroke="white" strokeWidth="4" strokeLinecap="round"/>
<path d="M3.05088 18.3617L13.8732 6.26898C19.0196 0.518374 28.3209 6.10664 25.6601 13.3507L24.593 16.2557" stroke="white" strokeWidth="4" strokeLinecap="round"/>
<path d="M13.824 19.856V16.992H10.96V15.48H13.824V12.624H15.336V15.48H18.184V16.992H15.336V19.856H13.824Z" fill="white"/>
</g>
<path d="M38.12 16.5V4.98H39.632L43.808 13.644L47.96 4.98H49.488V16.492H47.904V8.612L44.184 16.5H43.424L39.696 8.612V16.5H38.12ZM55.5614 16.74C54.7027 16.74 53.948 16.5533 53.2974 16.18C52.652 15.8013 52.148 15.276 51.7854 14.604C51.428 13.9267 51.2494 13.1427 51.2494 12.252C51.2494 11.308 51.4254 10.4893 51.7774 9.796C52.1347 9.10267 52.6307 8.56667 53.2654 8.188C53.9 7.80933 54.6387 7.62 55.4814 7.62C56.3614 7.62 57.1107 7.82533 57.7294 8.236C58.348 8.64133 58.8094 9.22 59.1134 9.972C59.4227 10.724 59.5454 11.6173 59.4814 12.652H57.8094V12.044C57.7987 11.0413 57.6067 10.3 57.2334 9.82C56.8654 9.34 56.3027 9.1 55.5454 9.1C54.708 9.1 54.0787 9.364 53.6574 9.892C53.236 10.42 53.0254 11.1827 53.0254 12.18C53.0254 13.1293 53.236 13.8653 53.6574 14.388C54.0787 14.9053 54.6867 15.164 55.4814 15.164C56.004 15.164 56.4547 15.0467 56.8334 14.812C57.2174 14.572 57.516 14.2307 57.7294 13.788L59.3694 14.308C59.0334 15.0813 58.524 15.6813 57.8414 16.108C57.1587 16.5293 56.3987 16.74 55.5614 16.74ZM52.4814 12.652V11.348H58.6494V12.652H52.4814ZM64.7083 16.74C63.9029 16.74 63.2069 16.54 62.6203 16.14C62.0389 15.74 61.5883 15.196 61.2683 14.508C60.9536 13.8147 60.7963 13.036 60.7963 12.172C60.7963 11.3027 60.9563 10.5267 61.2763 9.844C61.5963 9.156 62.0496 8.61467 62.6363 8.22C63.2283 7.82 63.9296 7.62 64.7403 7.62C65.5563 7.62 66.2416 7.82 66.7963 8.22C67.3563 8.61467 67.7776 9.156 68.0603 9.844C68.3483 10.532 68.4923 11.308 68.4923 12.172C68.4923 13.036 68.3483 13.812 68.0603 14.5C67.7723 15.188 67.3483 15.7347 66.7883 16.14C66.2283 16.54 65.5349 16.74 64.7083 16.74ZM64.9403 15.228C65.4896 15.228 65.9376 15.0973 66.2843 14.836C66.6309 14.5747 66.8843 14.2147 67.0443 13.756C67.2043 13.2973 67.2843 12.7693 67.2843 12.172C67.2843 11.5747 67.2016 11.0467 67.0363 10.588C66.8763 10.1293 66.6256 9.772 66.2843 9.516C65.9483 9.26 65.5189 9.132 64.9963 9.132C64.4416 9.132 63.9856 9.268 63.6283 9.54C63.2709 9.812 63.0043 10.1773 62.8283 10.636C62.6576 11.0947 62.5723 11.6067 62.5723 12.172C62.5723 12.7427 62.6576 13.26 62.8283 13.724C63.0043 14.1827 63.2656 14.548 63.6123 14.82C63.9643 15.092 64.4069 15.228 64.9403 15.228ZM67.2843 16.5V10.284H67.0923V4.98H68.7723V16.5H67.2843ZM71.0106 16.5V4.98H77.8346V6.652H72.6826V9.9H76.8746V11.58H72.6826V16.5H71.0106ZM79.4363 16.5V4.74H81.1083V16.5H79.4363ZM86.7666 16.732C86.1693 16.732 85.668 16.636 85.2626 16.444C84.8573 16.252 84.5266 16.0013 84.2706 15.692C84.02 15.3773 83.828 15.036 83.6946 14.668C83.5613 14.3 83.4706 13.94 83.4226 13.588C83.3746 13.236 83.3506 12.9267 83.3506 12.66V7.86H85.0466V12.108C85.0466 12.444 85.0733 12.7907 85.1266 13.148C85.1853 13.5 85.292 13.828 85.4466 14.132C85.6066 14.436 85.828 14.6813 86.1106 14.868C86.3986 15.0547 86.772 15.148 87.2306 15.148C87.5293 15.148 87.812 15.1 88.0786 15.004C88.3453 14.9027 88.5773 14.7427 88.7746 14.524C88.9773 14.3053 89.1346 14.0173 89.2466 13.66C89.364 13.3027 89.4226 12.868 89.4226 12.356L90.4626 12.748C90.4626 13.532 90.316 14.2253 90.0226 14.828C89.7293 15.4253 89.308 15.892 88.7586 16.228C88.2093 16.564 87.5453 16.732 86.7666 16.732ZM89.6226 16.5V14.004H89.4226V7.86H91.1106V16.5H89.6226ZM92.3944 16.5L95.6264 12.132L92.4664 7.86H94.4504L96.6024 10.828L98.7304 7.86H100.714L97.5544 12.132L100.794 16.5H98.8024L96.6024 13.436L94.3864 16.5H92.3944Z" fill="white"/>
<defs>
<clipPath id="clip0_361_1412">
<rect width="31" height="21" fill="white"/>
</clipPath>
</defs>
</svg>
