<svg width="26" height="26" viewBox="0 0 26 26" fill="none" xmlns="http://www.w3.org/2000/svg">
<path d="M22.8462 5.61546H17.9232V3.15392C17.9232 1.80008 16.8155 0.692383 15.4616 0.692383H10.5385C9.18469 0.692383 8.077 1.80008 8.077 3.15392V5.61546H3.15392C1.80008 5.61546 0.692383 6.72315 0.692383 8.077V22.8462C0.692383 24.2001 1.80008 25.3078 3.15392 25.3078H22.8462C24.2001 25.3078 25.3078 24.2001 25.3078 22.8462V8.077C25.3078 6.72315 24.2001 5.61546 22.8462 5.61546ZM10.5385 3.15392H15.4616V5.61546H10.5385V3.15392ZM22.8462 22.8462H3.15392V8.077H22.8462V22.8462Z" fill="#03A9F5"/>
<path d="M14.231 10.5391H11.7695V14.2314H8.07715V16.6929H11.7695V20.3852H14.231V16.6929H17.9233V14.2314H14.231V10.5391Z" fill="#03A9F5"/>
</svg>
